<svg width="2415" height="2500" viewBox="0 0 256 265" xmlns="http://www.w3.org/2000/svg" preserveAspectRatio="xMidYMid"><path d="M82.473 256.2c-6.973-9.564-4.782-22.713 4.781-29.686 1.992-1.394 4.184-2.39 6.375-3.187l.399-7.97c-5.18-2.191-9.364-7.77-9.762-13.348l-7.77-1.992a19.724 19.724 0 0 1-4.981 4.98c-9.563 6.974-22.911 4.782-29.685-4.78-6.973-9.564-4.781-22.713 4.782-29.686 9.562-6.973 22.712-4.781 29.684 4.782 1.794 2.59 3.188 5.578 3.786 8.567l13.547 3.586c3.586-1.395 7.571-1.594 11.157-.2l7.77-5.578c-1.992-8.168 1.195-17.134 8.168-22.114 9.563-6.973 22.911-4.782 29.685 4.781 6.973 9.364 4.782 22.712-4.781 29.685-6.973 4.98-16.337 5.38-23.51.996l-7.769 5.579c.2 3.785-1.195 7.57-3.586 10.559l-.797 13.946c2.79 1.594 5.18 3.586 6.973 6.176 6.774 9.563 4.781 22.712-4.782 29.685-9.363 6.973-22.711 4.781-29.684-4.782z" fill="#0690BA"/><path d="M112.157 234.683c-2.191-2.989-5.18-4.981-8.367-5.778l1.195-20.321c3.188-2.59 4.383-6.774 2.989-10.56l14.344-10.36c5.18 5.38 13.747 6.177 19.923 1.595 6.973-4.981 8.367-14.544 3.387-21.517-4.98-6.774-14.544-8.368-21.517-3.387-6.176 4.582-8.168 12.95-4.582 19.525l-14.544 10.36c-2.988-2.59-7.371-2.79-10.957-.598l-19.724-5.18c.2-3.387-.797-6.973-2.789-9.762-4.98-6.774-14.743-8.368-21.517-3.387-6.973 4.98-8.367 14.543-3.386 21.516 4.98 6.973 14.543 8.368 21.516 3.387 2.59-1.992 4.383-4.383 5.38-7.172l17.332 4.582c-1.394 2.79-.996 6.376.996 8.965 1.993 2.79 5.18 3.985 8.368 3.786l-.996 17.93c-2.989 0-5.977.996-8.567 2.989-6.774 4.98-8.368 14.543-3.387 21.516 4.98 6.973 14.544 8.368 21.517 3.387 6.973-4.98 8.367-14.543 3.386-21.516zm15.74-64.949c3.984-2.789 9.363-1.992 12.152 1.993 2.79 3.984 1.993 9.363-1.992 12.153-3.188 2.39-7.57 2.191-10.559-.2l2.59-1.992c1.793.996 4.383.996 6.176-.398 2.59-1.793 3.188-5.38 1.195-7.97-1.793-2.59-5.379-3.187-7.969-1.195-1.793 1.395-2.59 3.586-2.191 5.778l-2.59 1.992c-1.196-3.586 0-7.77 3.187-10.16zm-63.355 25.502c-4.184 2.988-9.961 1.992-12.95-2.192-2.988-4.184-1.992-9.961 2.192-12.95 4.184-2.988 9.961-1.992 12.95 1.992a10.056 10.056 0 0 1 1.793 4.583l-3.188-.797c-.2-.598-.399-1.395-.996-1.992-1.992-2.79-5.977-3.387-8.766-1.395-2.79 1.992-3.387 5.977-1.395 8.766 1.992 2.79 5.977 3.387 8.766 1.395.797-.598 1.395-1.395 1.793-2.192l2.989.797c-.797 1.594-1.793 2.988-3.188 3.985zm27.693 53.99c-2.989-4.184-1.993-9.961 1.992-12.95a10.056 10.056 0 0 1 4.582-1.793l-.199 3.188c-.996.2-1.793.398-2.59.996-2.79 1.992-3.387 5.977-1.395 8.766 1.993 2.79 5.977 3.387 8.766 1.395 2.79-1.992 3.387-5.977 1.395-8.766-.398-.598-.996-.996-1.594-1.395l.2-3.387c1.394.598 2.789 1.594 3.785 2.989 2.988 4.184 1.992 9.961-2.192 12.95-3.984 3.187-9.762 2.191-12.75-1.993z" fill="#C3E8F2"/><path d="M239.066 223.924c-11.157 3.586-23.11-2.59-26.697-13.746-.797-2.391-.996-4.583-.996-6.973l-7.57-2.79c-3.587 4.383-10.36 6.376-15.74 4.981l-4.383 6.774c1.395 1.793 2.59 3.984 3.188 6.375 3.586 11.157-2.59 23.11-13.747 26.896-11.157 3.586-23.11-2.59-26.696-13.747-3.586-11.157 2.59-23.11 13.746-26.696 2.989-.996 6.176-1.196 9.364-.797l7.57-11.755c-.198-3.785.798-7.57 3.388-10.559l-2.989-9.164c-8.367-.598-15.739-6.575-18.528-14.544-3.586-11.157 2.59-23.11 13.747-26.696 11.157-3.587 23.11 2.59 26.696 13.746 2.59 8.169 0 17.134-6.375 22.712l2.988 9.165c3.786.996 6.973 3.387 8.966 6.774l9.563 4.582c2.39-2.192 8.566-3.387 11.555-4.383 11.157-3.586 23.11 2.59 26.896 13.746 3.386 10.56-2.79 22.513-13.946 26.1z" fill="#0690BA"/><path d="M227.71 189.06c-3.387 1.195-6.376 3.386-8.169 6.176l-19.126-7.372c-1.394-3.785-5.18-6.176-9.164-5.977l-5.38-16.735c6.775-3.387 10.161-11.157 7.77-18.528-2.59-8.168-11.355-12.551-19.324-9.961-7.97 2.59-12.552 11.356-9.962 19.325 2.39 7.371 9.762 11.754 17.134 10.36l5.379 16.934c-3.387 2.191-4.98 6.176-3.785 10.16l-11.157 17.134c-3.188-1.195-6.774-1.395-10.16-.398-8.17 2.59-12.552 11.356-9.962 19.325 2.59 8.168 11.356 12.551 19.325 9.961 8.168-2.59 12.551-11.356 9.961-19.325-.996-2.988-2.789-5.578-5.18-7.371l9.763-15.142a9.175 9.175 0 0 0 8.965 1.993c3.187-.997 5.379-3.587 6.176-6.774l16.735 6.574a15.32 15.32 0 0 0 .2 8.966c2.59 8.168 11.355 12.55 19.324 9.96 8.169-2.589 12.552-11.355 9.962-19.324-2.59-8.169-11.157-12.552-19.325-9.962zm-56.78-35.065c-1.395-4.582.996-9.563 5.578-10.957 4.582-1.594 9.563.996 10.958 5.578 1.195 3.786-.399 7.97-3.586 9.962l-.997-2.989c1.594-1.394 2.391-3.785 1.594-5.977a5.647 5.647 0 0 0-7.172-3.586 5.647 5.647 0 0 0-3.586 7.172c.797 2.192 2.59 3.587 4.781 3.985l.997 3.188c-3.786-.2-7.372-2.59-8.567-6.376zm4.582 68.136c1.594 4.981-1.195 10.16-5.977 11.755-4.98 1.594-10.16-1.196-11.754-5.977-1.594-4.782 1.195-10.16 5.977-11.755 1.593-.597 3.386-.597 4.98-.199l-1.793 2.79c-.598 0-1.394 0-2.191.199-3.188.996-4.981 4.582-3.985 7.969.996 3.187 4.582 4.98 7.97 3.984 3.187-.996 4.98-4.582 3.984-7.77-.399-.996-.797-1.793-1.594-2.39l1.793-2.59c.996.996 1.992 2.39 2.59 3.984zm59.768-9.563c-4.98 1.594-10.16-1.195-11.754-5.977-.598-1.593-.598-3.386-.2-4.98l2.99 1.195c-.2.996-.2 1.992.198 2.79.996 3.386 4.583 4.98 7.97 3.984 3.386-.996 5.18-4.582 3.984-7.97-.996-3.187-4.582-4.98-7.97-3.984-.597.2-1.394.598-1.792.996l-3.188-1.195c.996-1.195 2.39-2.191 4.184-2.79 4.98-1.593 10.16 1.196 11.754 5.978 1.395 5.18-1.195 10.36-6.176 11.953z" fill="#C3E8F2"/><path d="M255.203 66.734c0 11.754-9.563 21.317-21.317 21.317-2.391 0-4.782-.399-10.56-1.594l-4.98 6.176c6.375 5.18 6.375 12.153 3.387 16.935l4.98 6.176c2.192-.797 4.583-1.196 6.973-1.196 11.755 0 21.318 9.563 21.318 21.318 0 11.754-9.563 21.317-21.318 21.317-11.754 0-21.317-9.563-21.317-21.317 0-3.188.797-6.376 1.992-9.165l-8.766-10.758c-3.785-.996-6.973-3.188-9.164-6.375h-9.563c-2.79 7.77-10.56 12.95-19.126 12.95-11.754 0-21.317-9.564-21.317-21.318 0-11.754 9.563-21.317 21.317-21.118 8.567 0 16.337 5.379 19.524 13.149h9.563c2.192-3.188 5.38-5.579 9.165-6.375l8.766-10.759c-1.395-2.789-1.992-5.977-1.992-9.164 0-11.755 9.562-21.318 21.317-21.318 11.754 0 21.118 9.563 21.118 21.119z" fill="#0690BA"/><path d="M218.545 66.734c0 3.586 1.196 6.973 3.387 9.562l-12.95 15.74c-3.984.199-7.57 2.988-8.567 6.773h-17.73c-1.196-7.371-7.572-13.149-15.142-13.149-8.567 0-15.34 6.774-15.34 15.34 0 8.368 6.773 15.341 15.34 15.341 7.77 0 14.145-5.777 15.34-13.149h17.732c.996 3.786 4.383 6.575 8.566 6.774l12.95 15.739c-2.191 2.59-3.387 5.977-3.387 9.563 0 8.567 6.973 15.34 15.34 15.34 8.568 0 15.341-6.973 15.341-15.34 0-8.567-6.773-15.34-15.34-15.34-3.188 0-6.176.996-8.567 2.59l-11.356-13.947c2.79-1.593 4.582-4.582 4.582-7.77 0-3.386-1.793-6.375-4.582-7.969l11.356-13.946a15.523 15.523 0 0 0 8.567 2.59c8.567 0 15.34-6.973 15.34-15.34 0-8.567-6.972-15.34-15.34-15.34-8.567.597-15.54 7.57-15.54 15.938zm-50.803 43.232c-4.781 0-8.766-3.985-8.766-8.766 0-4.782 3.985-8.766 8.766-8.766 3.985 0 7.371 2.79 8.368 6.375h-3.188c-.797-1.992-2.79-3.387-5.18-3.387-3.188 0-5.578 2.59-5.578 5.579 0 3.187 2.59 5.777 5.578 5.777 2.39 0 4.383-1.394 5.18-3.387h3.188c-.997 3.985-4.383 6.575-8.368 6.575zm66.144 16.735a9.353 9.353 0 0 1 9.363 9.364 9.353 9.353 0 0 1-9.363 9.364 9.353 9.353 0 0 1-9.364-9.364c0-1.793.598-3.387 1.395-4.782l2.191 2.59c-.2.598-.398 1.395-.398 2.192 0 3.387 2.789 6.176 6.176 6.176s6.176-2.79 6.176-6.176c0-3.387-2.79-6.176-6.176-6.176-.996 0-1.993.199-2.79.597l-1.992-2.39c1.395-.996 3.188-1.395 4.782-1.395zm9.363-59.967a9.353 9.353 0 0 1-9.363 9.363c-1.793 0-3.387-.398-4.782-1.394l1.993-2.391c.796.398 1.793.598 2.789.797 3.387 0 6.176-2.79 6.176-6.176 0-3.387-2.79-6.176-6.176-6.176-3.387 0-6.176 2.789-6.176 6.176 0 .797.199 1.394.398 1.992l-2.191 2.59c-.797-1.395-1.395-2.988-1.395-4.781a9.353 9.353 0 0 1 9.364-9.364c5.18.2 9.363 4.184 9.363 9.364z" fill="#C3E8F2"/><path d="M110.763 1.984c11.157 3.587 17.333 15.74 13.547 26.896-.797 2.391-1.793 4.383-3.386 6.376l4.383 6.773c5.578-1.394 12.152.797 15.739 5.18l7.57-2.789c0-2.39.399-4.781.996-6.973 3.586-11.157 15.74-17.333 26.896-13.547 11.157 3.586 17.333 15.54 13.548 26.895-3.587 11.157-15.74 17.333-26.896 13.548-2.989-.996-5.778-2.59-7.97-4.782l-12.95 4.981c-1.991 3.188-5.179 5.778-8.964 6.774l-2.989 9.164c6.376 5.579 8.965 14.544 6.376 22.712-3.587 11.157-15.74 17.333-26.896 13.548-10.958-4.184-17.134-16.138-13.548-27.294 2.59-8.169 10.16-13.946 18.528-14.544l2.989-9.165c-2.39-2.988-3.586-6.773-3.188-10.758l-7.57-11.754c-3.188.398-6.376.199-9.364-.797-11.157-3.586-17.333-15.54-13.747-26.697 3.785-11.157 15.74-17.333 26.896-13.747z" fill="#0690BA"/><path d="M99.407 36.85c3.387 1.195 6.973.996 10.16-.2l10.958 17.134c-1.195 3.984.598 7.969 3.785 10.16l-5.578 16.735c-7.371-1.195-14.743 2.989-17.134 10.36-2.59 8.169 1.793 16.735 9.763 19.525 7.969 2.59 16.735-1.793 19.524-9.762 2.39-7.372-.996-15.142-7.77-18.529l5.578-16.735c3.985.2 7.77-2.191 9.165-5.977l19.126-7.371c1.793 2.79 4.582 5.18 8.168 6.176 8.168 2.59 16.735-1.793 19.524-9.961 2.59-8.169-1.793-16.736-9.961-19.525-8.168-2.59-16.735 1.793-19.524 9.762a15.32 15.32 0 0 0-.2 8.966l-16.735 6.574c-.597-2.988-2.789-5.777-5.976-6.774-3.188-.996-6.575-.199-8.966 1.793l-9.762-15.14c2.39-1.794 4.184-4.384 5.18-7.372 2.59-8.169-1.793-16.735-9.961-19.325-8.169-2.59-16.736 1.793-19.325 9.961-2.59 8.168 1.793 16.934 9.96 19.524zm25.302 61.96c-1.594 4.581-6.375 7.171-10.958 5.578-4.582-1.594-7.172-6.376-5.578-10.958 1.195-3.785 4.98-6.176 8.766-5.977l-.996 2.989c-2.192.199-3.985 1.793-4.782 3.785a5.647 5.647 0 0 0 3.586 7.172 5.647 5.647 0 0 0 7.173-3.586c.797-2.191 0-4.582-1.594-5.977l.996-3.187c3.188 2.191 4.781 6.176 3.387 10.16zm36.26-57.976c1.593-4.98 6.773-7.57 11.754-5.977 4.781 1.594 7.57 6.973 5.977 11.755-1.594 4.781-6.774 7.57-11.755 5.976-1.594-.597-2.988-1.593-3.984-2.789l3.187-1.195c.598.398 1.196.797 1.993.996 3.187.996 6.773-.797 7.77-3.985.996-3.187-.798-6.773-3.985-7.77-3.188-.996-6.774.797-7.97 3.985-.198.996-.398 1.992-.198 2.79l-2.989 1.195c-.2-1.594-.2-3.387.2-4.981zM106.977 13.34c4.98 1.594 7.57 6.774 5.976 11.755-.597 1.594-1.394 2.988-2.789 4.184l-1.594-2.59a7.164 7.164 0 0 0 1.594-2.391c.996-3.387-.797-6.774-3.984-7.97-3.188-.995-6.774.798-7.97 3.985-.996 3.188.797 6.774 3.985 7.77.598.2 1.395.399 1.992.2l1.793 2.789c-1.593.398-3.187.398-4.98-.2-4.981-1.593-7.57-6.773-5.977-11.754 1.793-4.582 7.172-7.371 11.954-5.778z" fill="#C3E8F2"/><path d="M34.658 114.15c1.992 1.394 3.586 3.187 4.98 5.18l7.77-1.993c.399-5.578 4.583-11.356 9.763-13.348l-.399-7.969c-2.191-.598-4.383-1.793-6.375-3.188-9.364-7.172-11.555-20.52-4.582-30.083 6.973-9.563 20.122-11.555 29.685-4.582 9.363 6.973 11.555 20.122 4.582 29.685-1.793 2.59-4.184 4.582-6.973 6.176l.797 13.946c2.39 2.988 3.785 6.773 3.586 10.559l7.77 5.578c7.172-4.383 16.536-3.984 23.509.996 9.563 6.973 11.555 20.322 4.582 29.685-6.774 9.563-20.122 11.555-29.685 4.782-6.973-4.981-10.16-13.946-8.168-22.115l-7.77-5.578c-3.586 1.395-7.571 1.395-11.157-.2l-13.548 3.587c-.597 3.188-1.793 6.176-3.785 8.567-6.774 9.363-19.923 11.555-29.486 4.582-9.563-6.774-11.555-20.122-4.781-29.685 6.973-9.563 20.122-11.555 29.685-4.582z" fill="#0690BA"/><path d="M34.658 140.448c2.191-2.989 3.188-6.375 2.988-9.762l19.724-5.18a9.286 9.286 0 0 0 10.957-.598l14.345 10.36c-3.387 6.574-1.594 14.942 4.582 19.524 6.973 4.981 16.536 3.586 21.517-3.387 4.98-6.773 3.586-16.536-3.387-21.516-6.176-4.582-14.743-3.786-20.122 1.594l-14.345-10.36c1.395-3.586.399-7.97-2.789-10.56l-1.195-20.32c3.387-.797 6.375-2.79 8.367-5.778 4.981-6.973 3.387-16.536-3.387-21.517-6.773-4.98-16.535-3.586-21.516 3.387-4.98 6.774-3.586 16.536 3.387 21.517a17.076 17.076 0 0 0 8.567 2.988l.996 17.93c-3.188-.398-6.376.997-8.368 3.786a9.149 9.149 0 0 0-.996 8.965l-17.333 4.582c-.996-2.789-2.789-5.379-5.379-7.172-6.973-4.98-16.536-3.387-21.517 3.387-4.98 6.774-3.586 16.536 3.387 21.517 6.973 4.98 16.536 3.387 21.517-3.387zm66.741-5.18c3.985 2.79 4.782 8.367 1.992 12.153-2.789 3.984-8.367 4.781-12.152 1.992-3.188-2.39-4.383-6.574-2.989-10.16l2.59 1.992c-.398 2.191.399 4.383 2.192 5.777 2.59 1.793 6.176 1.196 7.969-1.195 1.793-2.59 1.394-6.176-1.196-7.97-1.793-1.394-4.383-1.394-6.176-.398l-2.988-1.992c3.188-2.39 7.371-2.59 10.758-.2zM57.37 82.87c-4.183-2.988-4.98-8.965-1.991-12.95 2.988-4.184 8.965-4.98 12.95-1.992 4.183 2.988 5.18 8.965 1.992 12.95-.996 1.394-2.391 2.39-3.786 2.988l-.199-3.387c.598-.398 1.195-.797 1.594-1.394 1.992-2.79 1.395-6.774-1.395-8.766-2.789-1.993-6.773-1.395-8.766 1.394-1.992 2.79-1.394 6.774 1.395 8.766.797.598 1.793.996 2.59.996l.2 3.188c-1.396-.2-2.99-.797-4.583-1.793zm-42.634 43.033c2.988-4.184 8.965-5.18 12.95-1.992 1.394.996 2.39 2.39 3.188 3.785l-3.188.797c-.399-.797-.996-1.594-1.793-2.191-2.79-1.993-6.774-1.395-8.766 1.394-1.992 2.79-1.395 6.774 1.394 8.766 2.79 1.993 6.774 1.395 8.766-1.394.399-.598.797-1.196.997-1.993l3.386-.796c-.199 1.593-.597 3.187-1.793 4.582-2.988 4.184-8.766 4.98-12.95 1.992-4.382-2.988-5.18-8.965-2.19-12.95z" fill="#C3E8F2"/></svg>