<?xml version="1.0" standalone="no"?>
<!DOCTYPE svg PUBLIC "-//W3C//DTD SVG 20010904//EN"
 "http://www.w3.org/TR/2001/REC-SVG-20010904/DTD/svg10.dtd">
<svg version="1.0" xmlns="http://www.w3.org/2000/svg"
 width="720.000000pt" height="230.000000pt" viewBox="0 0 720.000000 230.000000"
 preserveAspectRatio="xMidYMid meet">

<g transform="translate(0.000000,230.000000) scale(0.100000,-0.100000)"
fill="#000000" stroke="none">
<path d="M1225 2290 c-34 -13 -65 -55 -72 -93 -5 -31 0 -45 31 -89 74 -108 66
-155 -43 -257 -52 -50 -72 -76 -80 -107 -25 -96 43 -184 142 -184 100 0 177
78 177 178 0 43 -18 73 -77 130 -74 72 -75 147 -4 226 47 50 61 77 61 111 0
37 -16 62 -50 80 -32 17 -55 18 -85 5z"/>
<path d="M697 2148 c-25 -20 -31 -62 -12 -82 36 -36 105 -7 105 46 0 40 -57
62 -93 36z"/>
<path d="M1802 2149 c-12 -5 -27 -20 -32 -35 -22 -58 45 -99 90 -54 46 46 4
112 -58 89z"/>
<path d="M763 1961 c-41 -26 -64 -61 -70 -108 -7 -53 27 -99 102 -140 117 -65
185 -171 185 -291 0 -74 -35 -147 -96 -201 -56 -49 -119 -71 -204 -71 -88 0
-154 21 -223 70 -72 52 -102 58 -161 32 -114 -51 -115 -204 -2 -242 44 -14 77
-5 150 42 120 77 247 90 368 37 46 -20 78 -29 94 -25 13 4 57 39 97 79 82 82
164 129 255 147 116 23 126 31 148 137 15 73 65 156 127 208 22 19 77 52 121
74 88 42 117 75 119 135 3 103 -101 161 -190 106 -50 -30 -62 -58 -73 -169
-11 -117 -37 -182 -101 -255 -144 -163 -374 -126 -449 71 -20 53 -22 69 -16
185 l7 127 -29 32 c-37 42 -110 51 -159 20z"/>
<path d="M4575 1820 l-55 -110 30 0 c19 0 33 7 40 20 9 17 21 20 85 20 65 0
74 -2 80 -20 5 -15 15 -20 40 -20 l33 0 -57 110 -56 110 -42 0 -43 0 -55 -110z
m125 19 c12 -23 19 -43 17 -46 -3 -2 -26 -3 -51 -1 l-46 3 26 43 c14 23 27 42
29 42 3 0 14 -18 25 -41z"/>
<path d="M5097 1923 l-68 -4 3 -107 3 -107 28 -3 c24 -3 27 0 27 27 l0 31 79
0 c59 0 84 4 95 16 20 20 22 117 2 133 -16 14 -81 19 -169 14z m128 -78 l0
-30 -67 -3 -68 -3 0 36 0 36 68 -3 67 -3 0 -30z"/>
<path d="M5588 1908 c-18 -27 -98 -185 -98 -193 0 -3 13 -5 30 -5 19 0 33 7
40 20 9 17 21 20 80 20 59 0 72 -3 82 -20 12 -19 68 -29 68 -12 0 4 -24 52
-53 107 l-52 100 -41 3 c-34 2 -44 -1 -56 -20z m80 -73 l22 -45 -50 0 -50 0
22 45 c12 25 25 45 28 45 3 0 16 -20 28 -45z"/>
<path d="M6470 1814 l0 -115 28 3 c24 3 27 7 30 46 l3 42 75 0 74 0 0 -46 c0
-44 1 -45 28 -42 l27 3 3 113 3 112 -31 0 c-29 0 -30 -2 -30 -45 l0 -45 -75 0
-75 0 0 45 c0 43 -1 45 -30 45 l-30 0 0 -116z"/>
<path d="M6957 1923 c-4 -3 -7 -55 -7 -115 l0 -108 115 0 115 0 0 25 c0 25 -1
25 -85 25 -78 0 -85 2 -85 20 0 18 7 20 80 20 73 0 80 2 80 20 0 18 -7 20 -80
20 -79 0 -80 0 -80 25 0 25 1 25 85 25 84 0 85 0 85 25 l0 25 -108 0 c-60 0
-112 -3 -115 -7z"/>
<path d="M6018 1909 c-15 -8 -18 -24 -18 -92 0 -51 5 -88 12 -95 8 -8 48 -12
114 -12 109 0 134 10 134 51 0 14 -7 19 -29 19 -16 0 -31 -6 -35 -15 -4 -11
-21 -15 -60 -15 -81 0 -86 4 -86 65 0 60 6 65 80 65 30 0 52 -5 60 -15 7 -8
25 -15 40 -15 24 0 27 3 23 23 -11 43 -21 47 -122 47 -53 0 -104 -5 -113 -11z"/>
<path d="M244 1761 c-36 -22 -59 -78 -49 -113 4 -13 17 -34 29 -46 20 -22 26
-23 106 -18 133 10 165 -18 186 -160 11 -74 17 -92 42 -116 122 -122 339 38
263 194 -37 78 -93 93 -226 62 -64 -15 -73 -15 -107 -1 -45 19 -74 62 -83 124
-13 86 -87 119 -161 74z"/>
<path d="M2080 1773 c-31 -12 -53 -40 -87 -111 -31 -66 -40 -76 -80 -94 -48
-21 -65 -20 -181 13 -133 37 -256 -111 -196 -237 34 -71 126 -94 210 -53 48
23 76 62 94 129 19 69 48 119 83 141 28 18 42 20 125 14 l93 -6 34 34 c66 66
40 161 -46 172 -18 2 -41 2 -49 -2z"/>
<path d="M2696 1588 c-3 -13 -6 -42 -6 -65 l0 -43 44 0 44 0 -4 -37 c-8 -64
-74 -773 -74 -789 0 -10 -13 -14 -50 -14 l-50 0 0 -49 c0 -27 -3 -56 -6 -65
-5 -14 16 -16 194 -16 l199 0 7 46 c11 84 11 84 -40 84 l-45 0 6 53 c3 28 19
194 35 367 16 173 32 339 35 368 l6 52 44 0 c48 0 55 10 55 88 l0 42 -194 0
c-192 0 -194 0 -200 -22z"/>
<path d="M4015 1577 c33 -17 88 -60 122 -94 l62 -63 240 0 c140 0 241 -4 241
-9 0 -5 -18 -199 -40 -430 -22 -231 -40 -432 -40 -446 l0 -25 100 0 c95 0 100
1 104 22 5 20 86 860 86 881 0 11 978 8 1030 -4 68 -15 116 -53 147 -118 26
-51 28 -65 27 -166 -1 -171 -39 -284 -119 -354 -69 -60 -89 -65 -327 -69
l-218 -4 0 32 c0 34 37 453 45 513 l5 37 -104 0 -105 0 -5 -32 c-8 -46 -66
-677 -66 -712 l0 -28 313 5 c343 5 408 14 520 74 160 85 257 266 273 508 16
225 -62 389 -219 460 -116 54 -133 54 -1172 54 l-960 0 60 -32z"/>
<path d="M6146 1586 c60 -28 124 -83 155 -132 l21 -34 281 0 c262 0 284 -1
314 -20 85 -52 80 -165 -9 -220 -31 -18 -51 -20 -280 -20 l-246 0 -7 -77 c-4
-43 -9 -86 -11 -95 -5 -17 11 -18 231 -18 201 0 242 -3 272 -17 96 -45 94
-174 -3 -230 -38 -22 -48 -23 -322 -23 l-284 0 -59 -59 c-37 -38 -86 -73 -132
-96 l-72 -36 435 3 c423 3 437 4 490 26 139 56 220 163 228 301 5 92 -12 139
-69 191 l-38 36 47 34 c31 24 56 55 77 94 26 51 30 70 30 135 -1 113 -45 195
-130 238 -75 40 -117 43 -550 43 l-420 0 51 -24z"/>
<path d="M3433 1425 c-224 -61 -343 -241 -343 -520 0 -197 65 -312 207 -365
156 -58 450 -48 587 22 107 54 192 178 222 320 23 107 16 287 -14 351 -47 104
-116 160 -237 192 -78 20 -347 20 -422 0z m392 -164 c83 -37 115 -102 115
-233 0 -181 -57 -296 -170 -347 -27 -11 -72 -15 -190 -16 -147 0 -158 1 -205
25 -39 21 -55 37 -78 80 -28 53 -29 59 -24 170 5 139 28 209 88 269 60 59 99
69 274 70 125 0 157 -2 190 -18z"/>
<path d="M1939 1286 c-14 -7 -44 -25 -65 -40 -54 -37 -154 -66 -226 -66 -44 0
-77 8 -128 30 -38 17 -76 30 -85 30 -28 0 -73 -29 -101 -66 -59 -77 -196 -152
-307 -168 -68 -10 -95 -38 -108 -111 -14 -80 -41 -128 -107 -198 -41 -43 -78
-68 -139 -97 -97 -46 -123 -78 -123 -151 0 -58 26 -94 80 -110 33 -10 47 -9
85 5 68 27 85 58 96 179 7 81 15 114 38 162 100 202 325 258 456 113 65 -73
80 -129 71 -283 -6 -113 -5 -123 14 -147 58 -75 188 -53 226 38 32 76 5 138
-78 180 -115 57 -187 159 -196 275 -5 80 16 135 77 202 57 62 126 90 221 91
89 1 149 -19 232 -77 52 -36 62 -39 106 -35 79 8 132 61 132 133 0 93 -91 153
-171 111z"/>
<path d="M16 1208 c-9 -12 -16 -30 -16 -39 0 -22 32 -49 58 -49 46 0 80 68 50
98 -21 21 -75 15 -92 -10z"/>
<path d="M2227 1168 c-25 -20 -31 -62 -12 -82 36 -35 105 -8 105 42 0 44 -56
68 -93 40z"/>
<path d="M1582 1019 c-119 -59 -131 -227 -22 -284 37 -19 77 -19 154 2 39 10
75 14 98 9 51 -9 93 -60 103 -121 9 -61 49 -105 96 -105 78 0 137 81 109 150
-19 47 -53 60 -141 53 -123 -9 -160 24 -174 158 -8 78 -30 120 -78 142 -47 23
-93 21 -145 -4z"/>
<path d="M584 1011 c-54 -24 -78 -57 -103 -140 -39 -128 -80 -156 -212 -146
l-89 7 -35 -35 c-55 -55 -48 -130 17 -163 38 -20 87 -12 115 19 12 12 35 52
52 89 27 56 38 70 75 87 53 26 64 26 152 0 59 -17 77 -19 112 -10 81 22 132
86 132 166 0 117 -103 177 -216 126z"/>
<path d="M1034 721 c-18 -11 -45 -36 -60 -57 -24 -31 -29 -47 -29 -95 0 -56 1
-58 56 -116 93 -97 98 -161 19 -247 -63 -69 -73 -102 -45 -155 31 -62 113 -64
165 -5 40 46 41 93 1 143 -41 52 -51 75 -51 116 0 51 13 71 90 145 87 83 103
127 74 198 -26 62 -70 92 -138 92 -33 0 -62 -7 -82 -19z"/>
<path d="M453 234 c-15 -24 -15 -29 -2 -53 21 -37 77 -37 98 1 12 21 13 31 3
52 -17 37 -74 37 -99 0z"/>
<path d="M1553 238 c-21 -27 -23 -51 -8 -74 19 -30 58 -31 85 -4 22 22 25 42
10 71 -12 22 -72 27 -87 7z"/>
</g>
</svg>
